<svg xmlns="http://www.w3.org/2000/svg" data-name="Layer 1" viewBox="0 0 32 32"><path d="M30.494,11.033l-.706-.706h0L23.423,3.961l-.707-.707a2.5,2.5,0,0,0-3.535,0L4.331,18.1s-.006.01-.01.015L1.5,20.935a2.514,2.514,0,0,0,0,3.538l7.37,7.36c.007.007.016.009.023.015a.5.5,0,0,0,.139.092.5.5,0,0,0,.191.039H20.5a.5.5,0,0,0,0-1H14.076l1.548-1.547c.006-.006.014-.008.02-.014L27.88,17.182l2.612-2.611c.037-.037.063-.081.1-.12a2.519,2.519,0,0,0,.221-.271l.008-.014a2.5,2.5,0,0,0-.325-3.133ZM23.067,5.024l5.657,5.657L13.17,26.235,7.513,20.578Zm-3.18-1.058a1.535,1.535,0,0,1,2.121,0l.351.351L6.806,19.871,5.394,18.459ZM12.661,30.978H9.436L2.214,23.767a1.51,1.51,0,0,1,0-2.125l2.475-2.475,1.764,1.764h0L12.816,27.3,14.58,29.06ZM29.789,13.859l0,0L27.17,16.478,15.288,28.353l-1.411-1.411L29.432,11.388l.354.354A1.5,1.5,0,0,1,29.789,13.859Z"/></svg>