<svg width="100px" height="100px" viewBox="0 0 100 100" xmlns="http://www.w3.org/2000/svg" xmlns:xlink="http://www.w3.org/1999/xlink" aria-hidden="true" role="img" class="iconify iconify--gis" preserveAspectRatio="xMidYMid meet"><path d="M50 0a3.5 3.5 0 0 0-3.5 3.5V93h-9.57a3.5 3.5 0 0 0-3.5 3.5a3.5 3.5 0 0 0 3.5 3.5h25a3.5 3.5 0 0 0 3.5-3.5a3.5 3.5 0 0 0-3.5-3.5H53.5V47h43a3.5 3.5 0 0 0 3.5-3.5v-40A3.5 3.5 0 0 0 96.5 0h-46a3.5 3.5 0 0 0-.254.01A3.5 3.5 0 0 0 50 0zm4 7h39v33H54V7z" fill=""></path></svg>