<?xml version="1.0" encoding="iso-8859-1"?>
<!-- Generator: Adobe Illustrator 19.0.0, SVG Export Plug-In . SVG Version: 6.00 Build 0)  -->
<svg version="1.1" id="Layer_1" xmlns="http://www.w3.org/2000/svg" xmlns:xlink="http://www.w3.org/1999/xlink" x="0px" y="0px"
	 viewBox="0 0 512.107 512.107" style="enable-background:new 0 0 512.107 512.107;" xml:space="preserve">
<g>
	<g>
		<g>
			<path d="M78.187,337.707C61.653,338.773,48.32,352,47.04,368.427c-1.493,19.52,13.867,35.84,33.067,35.947
				c0.107,0,0.107,0,0.213,0c18.453,0,33.493-14.827,33.493-33.173C113.92,352,97.813,336.427,78.187,337.707z M80.64,383.893
				c-0.107,0-0.107,0-0.213,0c-7.253,0-13.227-5.867-13.333-13.12c-0.107-7.36,5.76-13.44,13.12-13.547
				c7.36-0.107,13.44,5.76,13.547,13.12C93.867,377.707,88,383.787,80.64,383.893z"/>
			<path d="M465.173,80c0.107-19.2-16-34.773-35.627-33.493C413.013,47.573,399.68,60.8,398.4,77.227
				c-1.493,19.52,13.867,35.84,33.067,35.947c0.107,0,0.107,0,0.213,0C450.133,113.173,465.067,98.347,465.173,80z M432,92.8
				c-0.107,0-0.107,0-0.213,0c-7.36,0-13.227-5.867-13.333-13.12c-0.107-7.36,5.76-13.44,13.12-13.547s13.44,5.76,13.547,13.12
				S439.36,92.693,432,92.8z"/>
			<path d="M431.467,220.907c0,0,0.107,0,0.107,0c0.107,0,0.107,0,0.213,0c2.667,0,5.227-1.067,7.04-2.88
				c2.987-2.987,73.067-73.173,73.067-138.453C511.893,35.733,475.947,0,431.787,0c-44.16,0-80.107,35.733-80.107,79.573
				c0,48.107,38.08,98.88,59.307,123.413c-12.693,2.987-21.44,9.173-23.68,17.707c-1.6,5.973,0.107,14.187,9.6,19.2
				c13.013,6.827,15.68,11.627,15.573,12.693c-0.64,9.493-44.587,25.173-68.16,33.6c-43.52,15.573-80.96,28.907-82.987,51.947
				c-1.493,17.387,18.347,28.48,24.853,32.107c10.24,5.76,22.08,14.507,20.48,23.787C300.8,428.8,172.053,468.8,108.8,485.12
				c21.653-26.667,51.84-71.573,51.84-114.453c0-43.84-35.947-79.573-80.213-79.573c-44.267,0-80.213,35.84-80.213,79.68
				c0,60.587,60.48,125.44,71.467,136.747c1.6,2.56,4.16,4.267,7.147,4.587c0.107,0,0.32,0,0.427,0c0.213,0,0.64,0,0.96-0.107
				c0.107,0,0.107,0,0.213,0c0.107,0,0.32-0.107,0.427-0.107c23.787-2.453,225.6-52.053,244.48-109.867
				c4.16-12.8,2.453-31.68-29.227-49.493c-14.827-8.32-14.613-12.8-14.613-12.8c0.853-10.133,45.653-26.133,69.653-34.773
				c44.587-15.893,79.787-28.48,81.387-50.987c1.067-14.613-13.44-24.747-22.4-29.867C413.973,222.4,420.8,220.48,431.467,220.907z
				 M80.427,487.253c-17.28-18.88-60.053-70.827-60.053-116.48c0-32.747,26.987-59.52,60.053-59.52s60.053,26.667,60.053,59.413
				C140.48,416.32,97.707,468.267,80.427,487.253z M371.733,79.573c0-32.747,26.88-59.413,60.053-59.413
				c33.067,0,60.053,26.667,60.053,59.413c0,45.653-42.773,97.6-60.053,116.587C414.507,177.067,371.733,125.227,371.733,79.573z"/>
		</g>
	</g>
</g>
<g>
</g>
<g>
</g>
<g>
</g>
<g>
</g>
<g>
</g>
<g>
</g>
<g>
</g>
<g>
</g>
<g>
</g>
<g>
</g>
<g>
</g>
<g>
</g>
<g>
</g>
<g>
</g>
<g>
</g>
</svg>
